<?xml version="1.0" encoding="UTF-8" standalone="no"?>
<!DOCTYPE svg PUBLIC "-//W3C//DTD SVG 1.1//EN" "http://www.w3.org/Graphics/SVG/1.1/DTD/svg11.dtd">
<svg width="100%" height="100%" viewBox="0 0 2126 898" version="1.1" xmlns="http://www.w3.org/2000/svg" xmlns:xlink="http://www.w3.org/1999/xlink" xml:space="preserve" xmlns:serif="http://www.serif.com/" style="fill-rule:evenodd;clip-rule:evenodd;stroke-linejoin:round;stroke-miterlimit:2;">
    <g id="Artboard1" transform="matrix(1,0,0,1,-165.354,-1204.72)">
        <rect x="165.354" y="1204.72" width="2125.98" height="897.638" style="fill:none;"/>
        <clipPath id="_clip1">
            <rect x="165.354" y="1204.72" width="2125.98" height="897.638"/>
        </clipPath>
        <g clip-path="url(#_clip1)">
            <g id="Layer3" transform="matrix(1,0,0,1,94.8425,0.724409)">
                <g transform="matrix(1,0,0,1,-3,2.27374e-13)">
                    <path d="M850.394,1320.46L850.394,1960.63L968.504,1960.63L1142.76,1753.94L1142.76,1694.88L907.079,1454.36L907.079,1417.32L941.976,1320.46L850.394,1320.46Z" style="fill:rgb(255,238,0);fill-opacity:0.1;"/>
                </g>
                <g transform="matrix(1,0,0,1,304.087,2.27374e-13)">
                    <path d="M634.89,1320.46L599.992,1417.32L600.249,1454.36L859.299,1694.88L859.299,1753.94L696.85,1960.63L802.972,1960.63L1012.84,1753.94L1012.84,1694.88L691.583,1454.36L691.583,1417.32L815.598,1320.46L634.89,1320.46Z" style="fill:rgb(0,44,255);fill-opacity:0.1;"/>
                </g>
                <g transform="matrix(1,0,0,1,486.622,2.27374e-13)">
                    <path d="M633.063,1320.46L509.047,1417.32L509.047,1454.36L859.299,1694.88L859.299,1753.94L652.332,1960.63L765.346,1960.63L1015.74,1753.94L1015.74,1694.88L546.842,1454.36L546.842,1417.32L660.228,1320.46L633.063,1320.46Z" style="fill:rgb(0,255,57);fill-opacity:0.1;"/>
                </g>
                <g transform="matrix(1,0,0,1,675.599,2.27374e-13)">
                    <path d="M471.252,1320.47L357.866,1417.32L357.866,1454.36L853.929,1694.88L853.929,1753.94L606.896,1960.63L710.696,1960.63L1013.97,1753.94L1013.97,1694.88L457.079,1454.36L457.079,1417.32L653.142,1320.46L471.252,1320.47Z" style="fill:rgb(255,0,206);fill-opacity:0.1;"/>
                </g>
                <g transform="matrix(1,0,0,1,864.575,2.27374e-13)">
                    <path d="M464.165,1320.46L268.102,1417.32L268.102,1454.36L852.748,1694.88L852.748,1753.94L552.748,1960.63L659.047,1960.63L1107.87,1753.94L1107.87,1694.88L406.291,1454.36L406.291,1417.32L553.929,1320.46L464.165,1320.46Z" style="fill:rgb(255,237,0);fill-opacity:0.1;"/>
                </g>
                <g transform="matrix(1,0,0,1,1148.04,2.27374e-13)">
                    <path d="M269.874,1320.47L122.827,1417.32L122.827,1454.36L853.338,1694.88L853.338,1753.94L405.867,1960.63L510.863,1960.63L1033.46,1753.94L1033.46,1694.88L217.315,1454.36L217.315,1417.32L422.827,1320.46L269.874,1320.47Z" style="fill:rgb(0,44,255);fill-opacity:0.1;"/>
                </g>
            </g>
            <g id="Layer7" transform="matrix(1,0,0,1,94.8425,0.724409)">
                <g transform="matrix(1.61429,0,0,1,-469.741,41.3386)">
                    <rect x="803.15" y="1275.59" width="826.772" height="118.11" style="fill:url(#_Linear2);"/>
                </g>
                <g transform="matrix(1.34884,0,0,1,-256.546,-94.4882)">
                    <rect x="803.15" y="1913.39" width="1015.75" height="141.732" style="fill:url(#_Linear3);"/>
                </g>
            </g>
            <g id="Layer6" transform="matrix(1,0,0,1,94.8425,0.724409)">
                <g transform="matrix(1,0,0,1,-184.432,1014.11)">
                    <text x="1032.75px" y="1005.93px" style="font-family:'ArialMT', 'Arial', sans-serif;font-size:50px;">0x03,  0x85, 0xC0, 0x04, 0x60, 0x24</text>
                </g>
                <g transform="matrix(1,0,0,1,-206.521,992.695)">
                    <text x="1053.89px" y="744.814px" style="font-family:'ArialMT', 'Arial', sans-serif;font-size:50px;">(Nothing, 3=), (A, 5=), (G, 0=), (2I, 4=), (^GCG, 0=), (^G, 4=)</text>
                </g>
                <g transform="matrix(1,0,0,1,-59.0328,931.257)">
                    <text x="907.522px" y="326.851px" style="font-family:'Courier';font-size:50px;">CAGTCATAAC--TTAA</text>
                    <text x="1387.6px" y="326.851px" style="font-family:'Courier';font-size:50px;fill:rgb(52,119,91);">GCGG</text>
                    <text x="1507.62px" y="326.851px" style="font-family:'Courier';font-size:50px;">AGGA</text>
                    <text x="907.522px" y="376.851px" style="font-family:'Courier';font-size:50px;">CAG</text>
                    <text x="997.537px" y="376.851px" style="font-family:'Courier';font-size:50px;fill:rgb(0,0,255);">A</text>
                    <text x="1027.54px" y="376.851px" style="font-family:'Courier';font-size:50px;">CATAA</text>
                    <text x="1177.57px" y="376.851px" style="font-family:'Courier';font-size:50px;fill:rgb(0,13,255);">G</text>
                    <text x="1207.57px" y="376.851px" style="font-family:'Courier';font-size:50px;fill:rgb(255,3,0);">AC</text>
                    <text x="1267.58px" y="376.851px" style="font-family:'Courier';font-size:50px;">TTAA----AGGA</text>
                </g>
                <g transform="matrix(1,0,0,1,-53.1836,958.299)">
                    <text x="901.478px" y="495.425px" style="font-family:'ArialMT', 'Arial', sans-serif;font-size:50px;">3=A5=G2I4=^GCGG4=</text>
                </g>
            </g>
            <g id="Layer4" transform="matrix(1,0,0,1,0.354331,0.724409)">
                <g transform="matrix(1,0,0,1,-201.611,763.457)">
                    <text x="390.66px" y="690.267px" style="font-family:'ArialMT', 'Arial', sans-serif;font-size:50px;">Augmented CIGAR</text>
                </g>
                <g transform="matrix(1,0,0,1,-198.432,979.303)">
                    <text x="387.482px" y="285.765px" style="font-family:'ArialMT', 'Arial', sans-serif;font-size:50px;">Alignment</text>
                </g>
                <g transform="matrix(1,0,0,1,-216.337,548.755)">
                    <text x="402.823px" y="1093.94px" style="font-family:'ArialMT', 'Arial', sans-serif;font-size:50px;">Chunked augmented</text>
                    <text x="430.606px" y="1145.58px" style="font-family:'ArialMT', 'Arial', sans-serif;font-size:50px;">CIGAR</text>
                    <text x="439.868px" y="1180.01px" style="font-family:'ArialMT', 'Arial', sans-serif;font-size:33.333px;">one of (Nothing, Matches)</text>
                    <text x="541.739px" y="1214.43px" style="font-family:'ArialMT', 'Arial', sans-serif;font-size:33.333px;">(A<tspan x="573.233px 582.494px " y="1214.43px 1214.43px "> m</tspan>ismatch, Matches)</text>
                    <text x="541.739px" y="1248.85px" style="font-family:'ArialMT', 'Arial', sans-serif;font-size:33.333px;">(Insertion, Matches)</text>
                    <text x="541.739px" y="1283.28px" style="font-family:'ArialMT', 'Arial', sans-serif;font-size:33.333px;">(Deletion up to 3, Matches)</text>
                </g>
                <g transform="matrix(1,0,0,1,-171.261,1038.39)">
                    <text x="356.283px" y="981.652px" style="font-family:'ArialMT', 'Arial', sans-serif;font-size:50px;">Encoded chunked augmented</text>
                    <text x="384.066px" y="1033.29px" style="font-family:'ArialMT', 'Arial', sans-serif;font-size:50px;">CIGAR (Udon)</text>
                </g>
            </g>
        </g>
    </g>
    <defs>
        <linearGradient id="_Linear2" x1="0" y1="0" x2="1" y2="0" gradientUnits="userSpaceOnUse" gradientTransform="matrix(1.50694e-13,118.11,-73.1656,2.43264e-13,1029.96,1275.59)"><stop offset="0" style="stop-color:white;stop-opacity:1"/><stop offset="1" style="stop-color:white;stop-opacity:0"/></linearGradient>
        <linearGradient id="_Linear3" x1="0" y1="0" x2="1" y2="0" gradientUnits="userSpaceOnUse" gradientTransform="matrix(8.6786e-15,-141.732,141.732,8.6786e-15,1373.08,2055.12)"><stop offset="0" style="stop-color:white;stop-opacity:1"/><stop offset="1" style="stop-color:white;stop-opacity:0"/></linearGradient>
    </defs>
</svg>
